<?xml version="1.0" encoding="UTF-8" standalone="no"?><svg xmlns="http://www.w3.org/2000/svg" xmlns:xlink="http://www.w3.org/1999/xlink" fill="#7b3911" height="128" preserveAspectRatio="xMidYMid meet" version="1" viewBox="-4.6 0.0 132.6 128.0" width="132.6" zoomAndPan="magnify"><g id="change1_1"><path d="M76.7,84.4c-0.8-0.8-2-0.8-2.8,0l-13,13c-8.1,8.1-21.5,7.9-29.9-0.4c-8-8-8.5-21.8-0.4-29.9c0,0,13-13,13-13 c0.8-0.8,0.8-2,0-2.8L28.8,36.6c-0.8-0.8-2.1-0.8-2.8,0l-13,13c-17.6,17.6-17.2,46.6,0.8,64.6c9.2,9.2,21.1,13.8,33,13.8 c11.5,0,22.9-4.3,31.6-13c0,0,13-13,13-13c0.8-0.8,0.8-2.1,0-2.8C91.4,99.2,76.7,84.5,76.7,84.4z" fill="inherit"/></g><g id="change1_2"><path d="M41,40c0.5,0,1-0.2,1.4-0.6l6.2-6.2l0.9,2.9c0.2,0.7,0.7,1.2,1.4,1.4c0.7,0.2,1.4,0,1.9-0.5l9.6-9.6c0.8-0.8,0.8-2,0-2.8 c-0.8-0.8-2-0.8-2.8,0l-7.3,7.3l-0.9-2.9c-0.2-0.7-0.7-1.2-1.4-1.4c-0.7-0.2-1.4,0-1.9,0.5c0,0-8.5,8.5-8.5,8.5 C38.3,37.8,39.2,40,41,40z" fill="inherit"/></g><g id="change1_3"><path d="M100.6,65.6L91,75.2c-0.5,0.5-0.7,1.2-0.5,1.9c0.2,0.7,0.7,1.2,1.4,1.4l2.9,0.9l-6.2,6.2c-0.8,0.8-0.8,2,0,2.8 c0.8,0.8,2.1,0.8,2.8,0l8.5-8.5c0.5-0.5,0.7-1.2,0.5-1.9c-0.2-0.7-0.7-1.2-1.4-1.4l-2.9-0.9l7.3-7.3c0.8-0.8,0.8-2,0-2.8 C102.6,64.8,101.4,64.8,100.6,65.6z" fill="inherit"/></g><g id="change1_4"><path d="M119.1,31.7c-0.3-1.9-2-3.5-4.1-3.8l-8.8-1.4c-0.2,0-0.3-0.1-0.4-0.1c-1.2,0.6-2.5,1-3.9,1.3l0,0c0.6,1.5,2,2.5,3.7,2.8 l8.8,1.4c0.4,0.1,0.7,0.3,0.7,0.4l1.5,9.7H81.3l1.5-9.7c0-0.1,0.2-0.3,0.7-0.4l8.8-1.4c1.7-0.3,3.1-1.3,3.7-2.8l0,0 c-1.4-0.3-2.7-0.7-3.9-1.3c-0.1,0.1-0.2,0.1-0.4,0.1L83,28c-2.1,0.3-3.8,1.8-4.1,3.7l-1.9,12c-0.1,0.6,0.1,1.2,0.5,1.6 c0.4,0.4,0.9,0.7,1.5,0.7h40c0.6,0,1.1-0.3,1.5-0.7c0.4-0.4,0.5-1,0.5-1.6L119.1,31.7z" fill="inherit"/></g><g id="change1_5"><path d="M99,24c6.6,0,12-5.4,12-12S105.6,0,99,0S87,5.4,87,12S92.4,24,99,24z" fill="inherit"/></g><g id="change1_6"><path d="M74.5,34c-0.3-1.6-0.5-3.3-0.5-5c0-7.8,3.6-14.8,9.2-19.3c0.3-2.3,1.2-4.5,2.4-6.4C76.3,8.2,70,17.8,70,29 c0,4.8,1.2,9.2,3.2,13.2L74.5,34z" fill="inherit"/></g><g id="change1_7"><path d="M112.4,3.3c1.2,1.9,2.1,4,2.4,6.3c5.6,4.6,9.2,11.6,9.2,19.4c0,1.7-0.2,3.4-0.5,5l1.3,8.2c2-4,3.2-8.5,3.2-13.2 C128,17.8,121.7,8.1,112.4,3.3z" fill="inherit"/></g><g id="change1_8"><path d="M99,54c-5,0-9.6-1.5-13.5-4H79c5.2,4.9,12.2,8,20,8s14.8-3,20-8h-6.4C108.6,52.5,104,54,99,54z" fill="inherit"/></g></svg>