<?xml version="1.0" encoding="UTF-8"?><svg xmlns="http://www.w3.org/2000/svg" xmlns:xlink="http://www.w3.org/1999/xlink" height="332.7" preserveAspectRatio="xMidYMid meet" version="1.0" viewBox="0.0 -6.7 490.0 332.7" width="490.0" zoomAndPan="magnify"><g id="change1_1"><path d="M489.99,258.98v9.45c0,31.82-25.8,57.61-57.61,57.61H57.62C25.8,326.04,0,300.24,0,268.42v-9.45H489.99Z" fill="#e2c100" fill-rule="evenodd"/></g><g id="change2_1"><path d="M57.62,201.36H432.38c31.82,0,57.62,25.8,57.62,57.62h0c0,31.82-25.8,57.62-57.62,57.62H57.62c-31.82,0-57.62-25.8-57.62-57.62H0c0-31.82,25.8-57.62,57.62-57.62Z" fill="#ffda00"/></g><g id="change3_1"><path d="M278.02,20.3c24.21,0,19.02,31.13,34.59,44.96,3.38,1.69,8.38,1.7,10.23-1.51-1.42-4.18-5.76-10.69-7.51-16.43,5.28,1.48,8.23-1.33,7.76-2.88-1.45-4.81-10.92-11.7-17.61-30.47-7.35-20.62-32.28-16.9-35.34,1.36-44.01-9.62-54.32,21.27-45.63,49.79,1.34,4.39,56.28,20.23,56.28,20.23,7.55-5.65,12.76-13.89,14.63-23.13,1.34-16.76-3.91-31.8-17.39-41.91Z" fill="#7c3ecf" fill-rule="evenodd"/></g><g id="change4_1"><path d="M322.83,63.75c-1.85,3.22-6.85,3.2-10.23,1.51-15.57-13.84-10.38-44.96-34.59-44.96,13.48,10.11,18.73,25.15,17.39,41.91,.06-.31,.15-.6,.2-.92,5.31,5.56,8.39,6.2,7.42-.86,6.73,8.09,15.35,8.77,19.01,7.48,1.49-.52,1.5-2.05,.79-4.16Z" fill="#6820c8" fill-rule="evenodd"/></g><g id="change5_1"><path d="M225.57,45.85c-.78,7.1-3.45,33.74-.48,44.39,2.93,10.53,20.37,16.59,20.37,16.59,.37,3.54,.23,7.11-.41,10.61,10.33,2.18,21.04,1.63,31.09-1.6-2.62-6.47-3.86-15.44-3.18-28.3,13.84,3.65,15.8-15.25,1.24-12.88,2.68-15.96-5.12-15.03,.14-30.28-.06-.02-.12-.04-.17-.06-6.9,.44-13.73,1.66-20.36,3.64-9.41,3.14-18.82,2-28.23-2.11Z" fill="#ffb48b" fill-rule="evenodd"/></g><g id="change6_1"><path d="M225.77,44.08s-.08,.65-.2,1.78c9.41,4.11,18.82,5.25,28.23,2.11,6.63-1.97,13.46-3.19,20.36-3.64-13.15-4.99-25.11,7.16-48.39-.25Z" fill="#ff985f" fill-rule="evenodd"/></g><g id="change6_2"><path d="M245.46,106.83c.19,2.15,.23,4.31,.1,6.47v.21c6.1,0,9.82-3.65,12.18-9.35-3.05,2.23-9.07,3.36-12.28,2.67Z" fill="#ff985f"/></g><g id="change5_2"><path d="M342.06,201.36h-38.72c-.09-2.18-.21-4.29-.36-6.33h.1c4.15-12.57,19.33-22.79,35.57-17.95l.05-.02h.02c1.39,6.95,2.44,14.99,3.34,24.3Z" fill="#ffb48b"/></g><g id="change7_1"><path d="M284.16,201.36h19.18c-.09-2.18-.21-4.29-.36-6.33h.1c.68-2.01,1.61-3.92,2.77-5.7l-8.81-22.03c4.19,13.94,.49,30.12-12.87,34.06Z" fill="#ff7070"/></g><g id="change8_1"><path d="M316.54,141.08c-16.22-8.47-33.36-7.64-40.4-25.23-10.05,3.24-20.77,3.79-31.1,1.61-4.08,20.39-28.19,16.1-39.27,27.24-6.17,6.23-11.14,20.68-15.43,38.86l.24,.05c5.64,2.88,11.74,4.72,18.03,5.45,2.9-7.41,8.88-14.25,8.88-21.76,2.75,12.38-3.24,22.58-2.33,34.06h69.01c13.37-3.94,17.06-20.12,12.88-34.07l8.81,22.03c7-10.91,20.36-15.9,32.8-12.25l.05-.02c-3.73-18.78-9.9-29.59-22.17-35.99Z" fill="#ff8b8b"/></g><g id="change7_2"><path d="M217.49,167.3c0,7.5-5.98,14.34-8.88,21.76,1.32,.15,2.65,.28,4.02,.34h.02c-1.14,3.93-1.64,8.04,.02,11.97h2.49c-.91-11.49,5.08-21.68,2.33-34.06Z" fill="#ff7070"/></g><g id="change6_3"><path d="M207.91,201.36h4.76c-1.66-3.93-1.16-8.04-.02-11.97h-.02c-1.37-.07-2.71-.19-4.02-.34-1.52,3.89-2.18,7.93-.7,12.31Z" fill="#ff985f"/></g><g id="change5_3"><path d="M190.34,183.55c-1.33,5.62-2.61,11.6-3.82,17.81h21.39c-1.48-4.38-.82-8.42,.7-12.31-6.29-.73-12.39-2.57-18.03-5.45l-.24-.05Z" fill="#ffb48b"/></g><path d="M215.59,156.76c1.78,6.43,2.22,13.16,1.3,19.77-.48,3.53-2.85,8.04-4.24,12.87" fill="none" stroke="#000" stroke-linecap="round" stroke-linejoin="round" stroke-width="1.08"/><path d="M297.18,167.66c3.22,8.81,5.17,18.02,5.79,27.38,.15,2.04,.28,4.15,.36,6.33h0" fill="none" stroke="#000" stroke-linecap="round" stroke-linejoin="round" stroke-width="1.08"/><path d="M240.02,67.89c.92,6.18-3.93,10.85-4.21,13.02s2.48,4.71,5.85,5.49" fill="none" stroke="#000" stroke-linecap="round" stroke-linejoin="round" stroke-width="1.08"/><g id="change9_1"><path d="M246.25,90.52c8.82,8.04,14.11,7.62,14.84-3.78-2.91,1.5-7.96,2.74-14.84,3.78Z" fill="#8b1616" fill-rule="evenodd"/></g><path d="M273.98,85.69c.19-4.82,2.5-7.49,7.14-7.81" fill="none" stroke="#000" stroke-linecap="round" stroke-linejoin="round" stroke-width="1.08"/><path d="M254.71,56.45c4.03-3.45,7.51-3.09,10.39,1.45" fill="none" stroke="#000" stroke-linecap="round" stroke-linejoin="round" stroke-width="2.59"/><path d="M228.69,58.7c2.32-4.65,5.26-5.26,9.07-.26" fill="none" stroke="#000" stroke-linecap="round" stroke-linejoin="round" stroke-width="2.59"/><g id="change10_1"><ellipse cx="259.74" cy="68.76" rx="2.48" ry="4.11"/></g><g id="change10_2"><ellipse cx="234.5" cy="68.38" rx="2.48" ry="4.11"/></g><g id="change5_4"><path d="M321.47,209.78c-4.4,.98-11.83-3.89-9.48-15.11,2.29-10.93,7.26-14.04,12.07-10.16,3.1-2,7.19-1.43,9.62,1.33,2.98-1.27,6.44-.31,8.34,2.3,5.52-.61,7.98,6.44,7.28,12.57-.73,6.4-6.25,12.73-8.55,10.52-2.73,3.74-5.8,5.17-9.15,2.79-3.43,4.07-9.66,1.21-10.14-4.24Z" fill="#ffb48b" fill-rule="evenodd"/></g><path d="M321.45,210.12c-.94-4.93-.56-14.9,.76-20.25" fill="none" stroke="#000" stroke-linecap="round" stroke-linejoin="round" stroke-width="1.08"/><path d="M331.74,213.83c2.11-10.36,2.69-17.47,1.96-21.81" fill="none" stroke="#000" stroke-linecap="round" stroke-linejoin="round" stroke-width="1.08"/><path d="M340.96,210.99c2.39-4.95,3.06-10.56,1.91-15.93" fill="none" stroke="#000" stroke-linecap="round" stroke-linejoin="round" stroke-width="1.08"/><path d="M311.65,200.64c-.21-1.99-.1-4,.34-5.96,2.29-10.93,7.26-14.04,12.07-10.16,3.1-2,7.19-1.43,9.62,1.33,1.9-.83,4.07-.75,5.9,.21" fill="none" stroke="#000" stroke-linecap="round" stroke-linejoin="round" stroke-width="1.08"/><g id="change5_5"><path d="M188.09,194.97v-.62l-12.51-32.31s7.37-4.75,6.92-10.08-6.64-16.62-12.6-19.12-24.5,.27-29.42,4.06-7.03,18.22-5.7,23.42,10.05,11.21,14.45,10.25c1.75,6.3,3.08,15.38,3.91,22.04,8.79,7.86,23.61,8.02,34.95,2.35Z" fill="#ffb48b" fill-rule="evenodd"/></g><g id="change6_4"><path d="M190.8,201.36l-2.71-7.01v.62c-11.35,5.67-26.17,5.52-34.95-2.35,.63,5.07,.96,8.74,.96,8.74h36.71Z" fill="#ff985f" fill-rule="evenodd"/></g><path d="M173.05,149.02s-.85,22.8-.89,27.63-6.64,9.76-7.97,1.46-3.43-21.56-3.43-21.56" fill="none" stroke="#000" stroke-linecap="round" stroke-linejoin="round" stroke-width="1.08"/><path d="M162.59,169.27c-.21,.04-3.29,2.36-6.08,.2-1.68-1.3-6.68-11.9-6.68-11.9" fill="none" stroke="#000" stroke-linecap="round" stroke-linejoin="round" stroke-width="1.08"/><path d="M156.55,169.63s-3.84,3.44-7.04,.21c-3.13-3.39-5.93-7.07-8.38-10.98" fill="none" stroke="#000" stroke-linecap="round" stroke-linejoin="round" stroke-width="1.08"/></svg>