<?xml version="1.0" encoding="UTF-8" standalone="no"?><svg xmlns="http://www.w3.org/2000/svg" xmlns:xlink="http://www.w3.org/1999/xlink" fill="#000000" height="67.8" preserveAspectRatio="xMidYMid meet" version="1" viewBox="-2.4 0.0 67.8 67.8" width="67.8" zoomAndPan="magnify"><g data-name="Layer 2"><g data-name="Layer 1" fill="#7b3911" id="change1_1"><path d="M34,17.59h-7.8a1.27,1.27,0,0,0-1.27,1.27V43.33H22.45V23a1.27,1.27,0,0,0-1.28-1.27H13.38A1.27,1.27,0,0,0,12.1,23V43.33h-2a1.28,1.28,0,0,0,0,2.55h40a1.28,1.28,0,1,0,0-2.55H48V14.75a1.28,1.28,0,0,0-1.28-1.28H39a1.28,1.28,0,0,0-1.28,1.28V43.33H35.25V18.86A1.28,1.28,0,0,0,34,17.59ZM19.9,43.33H14.66V24.26H19.9Zm7.55,0V20.14h5.24V43.33Zm18,0H40.25V16h5.24Z"/><path d="M58.87,34.09h-7.1a1.28,1.28,0,0,0,0,2.55h5.79A27.52,27.52,0,1,1,28.8,7.88v6.87a1.28,1.28,0,0,0,2.55,0V6.57a1.28,1.28,0,0,0-1.28-1.28A30.08,30.08,0,1,0,60.14,35.37,1.27,1.27,0,0,0,58.87,34.09Z"/><path d="M35.37,0a1.28,1.28,0,0,0-1.28,1.28v9.46a1.28,1.28,0,1,0,2.55,0V2.58A27.56,27.56,0,0,1,62.86,28.8H51.77a1.28,1.28,0,0,0,0,2.55H64.16a1.28,1.28,0,0,0,1.28-1.28A30.1,30.1,0,0,0,35.37,0Z"/><path d="M15.69,49.06a1.28,1.28,0,1,0,0,2.55H44.46a1.28,1.28,0,0,0,0-2.55Z"/></g></g></svg>