<?xml version="1.0" encoding="UTF-8" standalone="no"?><svg xmlns="http://www.w3.org/2000/svg" xmlns:xlink="http://www.w3.org/1999/xlink" fill="#000000" height="60" preserveAspectRatio="xMidYMid meet" version="1" viewBox="2.0 2.0 60.0 60.0" width="60" zoomAndPan="magnify"><g fill="#692900" id="change1_1"><path d="M 30.667969 4.039062 L 38.675781 11.90625 L 32.566406 18.019531 C 32.378906 18.007812 32.191406 18 32 18 C 31.566406 18 31.132812 18.023438 30.707031 18.0625 C 30.566406 18.078125 30.425781 18.101562 30.285156 18.117188 C 30.003906 18.152344 29.722656 18.191406 29.445312 18.242188 C 29.28125 18.273438 29.121094 18.3125 28.957031 18.351562 C 28.710938 18.40625 28.460938 18.464844 28.21875 18.53125 C 28.050781 18.582031 27.886719 18.636719 27.71875 18.691406 C 27.488281 18.765625 27.257812 18.84375 27.035156 18.929688 C 26.867188 18.992188 26.703125 19.0625 26.539062 19.132812 C 26.320312 19.222656 26.105469 19.324219 25.894531 19.425781 C 25.734375 19.507812 25.574219 19.585938 25.417969 19.671875 C 25.210938 19.78125 25.007812 19.902344 24.804688 20.023438 C 24.652344 20.113281 24.503906 20.207031 24.355469 20.300781 C 24.15625 20.433594 23.960938 20.574219 23.765625 20.71875 C 23.628906 20.820312 23.492188 20.914062 23.355469 21.023438 C 23.160156 21.179688 22.96875 21.34375 22.777344 21.511719 C 22.660156 21.617188 22.539062 21.714844 22.425781 21.824219 C 22.210938 22.027344 22.003906 22.242188 21.796875 22.460938 C 21.722656 22.542969 21.640625 22.617188 21.570312 22.699219 C 21.296875 23.003906 21.039062 23.320312 20.792969 23.644531 C 20.726562 23.738281 20.664062 23.839844 20.597656 23.933594 C 20.425781 24.171875 20.257812 24.414062 20.101562 24.664062 C 20.019531 24.800781 19.945312 24.941406 19.863281 25.082031 C 19.738281 25.296875 19.613281 25.519531 19.5 25.746094 C 19.421875 25.902344 19.351562 26.058594 19.28125 26.21875 C 19.179688 26.4375 19.082031 26.65625 18.992188 26.882812 C 18.925781 27.050781 18.867188 27.222656 18.804688 27.394531 C 18.726562 27.617188 18.652344 27.84375 18.585938 28.074219 C 18.53125 28.25 18.484375 28.429688 18.441406 28.609375 C 18.414062 28.71875 18.375 28.828125 18.351562 28.9375 L 12.609375 23.195312 C 12.421875 23.007812 12.167969 22.902344 11.902344 22.902344 C 11.902344 22.902344 11.898438 22.902344 11.898438 22.902344 C 11.632812 22.902344 11.375 23.011719 11.1875 23.203125 L 4.039062 30.476562 C 4.796875 16.125 16.1875 4.714844 30.667969 4.039062 Z M 59.960938 30.667969 L 52.089844 38.675781 L 45.980469 32.566406 C 45.992188 32.378906 46 32.191406 46 32 C 46 31.566406 45.976562 31.132812 45.9375 30.707031 C 45.921875 30.566406 45.898438 30.425781 45.882812 30.289062 C 45.847656 30.003906 45.808594 29.722656 45.757812 29.445312 C 45.726562 29.28125 45.6875 29.121094 45.648438 28.960938 C 45.59375 28.710938 45.535156 28.460938 45.46875 28.21875 C 45.417969 28.050781 45.363281 27.886719 45.3125 27.71875 C 45.234375 27.488281 45.15625 27.257812 45.070312 27.03125 C 45.007812 26.867188 44.9375 26.703125 44.867188 26.539062 C 44.777344 26.324219 44.675781 26.105469 44.574219 25.894531 C 44.492188 25.734375 44.414062 25.574219 44.328125 25.417969 C 44.21875 25.210938 44.097656 25.003906 43.976562 24.800781 C 43.882812 24.652344 43.792969 24.503906 43.699219 24.355469 C 43.566406 24.15625 43.425781 23.960938 43.28125 23.765625 C 43.179688 23.628906 43.085938 23.488281 42.980469 23.359375 C 42.820312 23.15625 42.652344 22.96875 42.484375 22.777344 C 42.382812 22.660156 42.285156 22.539062 42.179688 22.425781 C 41.96875 22.207031 41.75 21.996094 41.527344 21.785156 C 41.449219 21.714844 41.378906 21.640625 41.300781 21.570312 C 40.996094 21.296875 40.679688 21.039062 40.351562 20.792969 C 40.265625 20.726562 40.171875 20.671875 40.082031 20.605469 C 39.835938 20.433594 39.589844 20.261719 39.332031 20.101562 C 39.203125 20.019531 39.066406 19.949219 38.929688 19.871094 C 38.707031 19.742188 38.484375 19.613281 38.253906 19.5 C 38.101562 19.421875 37.945312 19.355469 37.789062 19.285156 C 37.566406 19.179688 37.34375 19.082031 37.113281 18.992188 C 36.949219 18.925781 36.78125 18.867188 36.613281 18.808594 C 36.386719 18.726562 36.15625 18.652344 35.917969 18.582031 C 35.746094 18.53125 35.574219 18.484375 35.398438 18.441406 C 35.285156 18.414062 35.175781 18.378906 35.0625 18.351562 L 40.804688 12.609375 C 40.992188 12.421875 41.097656 12.164062 41.097656 11.898438 C 41.097656 11.632812 40.988281 11.375 40.796875 11.191406 L 33.523438 4.039062 C 47.875 4.792969 59.285156 16.1875 59.960938 30.667969 Z M 33.332031 59.960938 L 25.324219 52.09375 L 31.433594 45.980469 C 31.621094 45.992188 31.808594 46 32 46 C 32.433594 46 32.867188 45.976562 33.292969 45.9375 C 33.433594 45.921875 33.574219 45.898438 33.714844 45.882812 C 33.996094 45.847656 34.277344 45.808594 34.554688 45.757812 C 34.71875 45.726562 34.878906 45.6875 35.042969 45.648438 C 35.289062 45.59375 35.539062 45.535156 35.78125 45.46875 C 35.949219 45.417969 36.113281 45.363281 36.28125 45.308594 C 36.511719 45.234375 36.742188 45.15625 36.964844 45.070312 C 37.132812 45.007812 37.296875 44.9375 37.460938 44.867188 C 37.679688 44.777344 37.894531 44.675781 38.105469 44.574219 C 38.265625 44.492188 38.425781 44.414062 38.582031 44.328125 C 38.789062 44.21875 38.992188 44.097656 39.195312 43.976562 C 39.347656 43.886719 39.496094 43.792969 39.644531 43.699219 C 39.84375 43.566406 40.039062 43.425781 40.234375 43.28125 C 40.371094 43.179688 40.507812 43.085938 40.644531 42.976562 C 40.839844 42.820312 41.03125 42.65625 41.222656 42.488281 C 41.339844 42.382812 41.460938 42.285156 41.574219 42.175781 C 41.789062 41.972656 41.996094 41.757812 42.203125 41.539062 C 42.277344 41.457031 42.359375 41.382812 42.429688 41.300781 C 42.703125 40.996094 42.960938 40.679688 43.207031 40.355469 C 43.273438 40.261719 43.335938 40.160156 43.402344 40.066406 C 43.574219 39.828125 43.742188 39.585938 43.898438 39.335938 C 43.980469 39.199219 44.054688 39.058594 44.136719 38.917969 C 44.261719 38.703125 44.386719 38.480469 44.5 38.253906 C 44.578125 38.097656 44.648438 37.941406 44.71875 37.78125 C 44.820312 37.5625 44.917969 37.34375 45.007812 37.117188 C 45.074219 36.949219 45.132812 36.777344 45.195312 36.605469 C 45.273438 36.382812 45.347656 36.15625 45.414062 35.925781 C 45.46875 35.75 45.515625 35.570312 45.558594 35.390625 C 45.585938 35.28125 45.625 35.171875 45.648438 35.0625 L 51.390625 40.804688 C 51.578125 40.992188 51.832031 41.097656 52.097656 41.097656 C 52.097656 41.097656 52.101562 41.097656 52.101562 41.097656 C 52.367188 41.097656 52.625 40.988281 52.8125 40.796875 L 59.960938 33.523438 C 59.203125 47.875 47.8125 59.285156 33.332031 59.960938 Z M 32 20 C 32.261719 20 32.515625 20.019531 32.773438 20.039062 C 32.8125 20.039062 32.839844 20.042969 32.878906 20.042969 C 39.113281 20.496094 44 25.75 44 32 C 44 32.253906 43.980469 32.5 43.964844 32.746094 C 43.960938 32.792969 43.957031 32.832031 43.953125 32.878906 C 43.5 39.113281 38.25 44 32 44 C 31.738281 44 31.484375 43.980469 31.226562 43.960938 C 31.1875 43.960938 31.160156 43.957031 31.121094 43.957031 C 24.886719 43.503906 20 38.25 20 32 C 20 31.746094 20.019531 31.5 20.035156 31.253906 C 20.039062 31.207031 20.042969 31.167969 20.046875 31.121094 C 20.5 24.886719 25.75 20 32 20 Z M 4.039062 33.332031 L 11.910156 25.324219 L 18.019531 31.433594 C 18.007812 31.621094 18 31.808594 18 32 C 18 32.433594 18.023438 32.867188 18.0625 33.292969 C 18.078125 33.433594 18.101562 33.574219 18.117188 33.710938 C 18.152344 33.996094 18.191406 34.277344 18.242188 34.554688 C 18.273438 34.71875 18.3125 34.878906 18.351562 35.039062 C 18.40625 35.289062 18.464844 35.539062 18.53125 35.78125 C 18.582031 35.949219 18.636719 36.113281 18.691406 36.28125 C 18.765625 36.511719 18.84375 36.742188 18.929688 36.96875 C 18.992188 37.132812 19.0625 37.296875 19.132812 37.460938 C 19.226562 37.675781 19.324219 37.894531 19.425781 38.105469 C 19.507812 38.265625 19.585938 38.425781 19.671875 38.582031 C 19.78125 38.789062 19.902344 38.996094 20.023438 39.199219 C 20.117188 39.347656 20.207031 39.496094 20.300781 39.644531 C 20.433594 39.84375 20.574219 40.039062 20.71875 40.234375 C 20.820312 40.371094 20.914062 40.511719 21.019531 40.640625 C 21.179688 40.84375 21.347656 41.03125 21.515625 41.222656 C 21.617188 41.339844 21.714844 41.460938 21.820312 41.574219 C 22.03125 41.792969 22.25 42.003906 22.472656 42.214844 C 22.550781 42.285156 22.621094 42.359375 22.699219 42.429688 C 23.003906 42.703125 23.320312 42.960938 23.648438 43.207031 C 23.734375 43.273438 23.832031 43.332031 23.921875 43.394531 C 24.164062 43.570312 24.410156 43.738281 24.667969 43.898438 C 24.796875 43.980469 24.933594 44.050781 25.070312 44.128906 C 25.292969 44.257812 25.519531 44.386719 25.75 44.5 C 25.898438 44.578125 26.054688 44.644531 26.210938 44.714844 C 26.433594 44.820312 26.65625 44.917969 26.886719 45.007812 C 27.050781 45.074219 27.21875 45.132812 27.386719 45.191406 C 27.613281 45.273438 27.84375 45.347656 28.082031 45.417969 C 28.253906 45.46875 28.425781 45.515625 28.601562 45.558594 C 28.714844 45.585938 28.824219 45.621094 28.9375 45.648438 L 23.195312 51.390625 C 23.007812 51.578125 22.902344 51.835938 22.902344 52.101562 C 22.902344 52.367188 23.011719 52.625 23.203125 52.808594 L 30.476562 59.960938 C 16.125 59.207031 4.714844 47.8125 4.039062 33.332031 Z M 2.023438 32.972656 C 2.542969 49.25 15.710938 62 32 62 C 32.257812 62 32.511719 61.992188 32.765625 61.980469 L 32.964844 61.976562 C 32.96875 61.976562 32.96875 61.976562 32.972656 61.976562 C 49.25 61.457031 62 48.289062 62 32 C 62 31.734375 61.992188 31.472656 61.980469 31.214844 L 61.976562 31.027344 C 61.457031 14.75 48.289062 2 32 2 C 31.742188 2 31.488281 2.007812 31.234375 2.019531 L 31.027344 2.023438 C 14.75 2.542969 2 15.710938 2 32 C 2 32.265625 2.007812 32.527344 2.019531 32.785156 L 2.023438 32.972656" fill="inherit"/><path d="M 22 28 L 22 36 C 22 36.550781 22.449219 37 23 37 L 27 37 C 27.550781 37 28 36.550781 28 36 L 28 33 L 26 33 L 26 35 L 24 35 L 24 29 L 26 29 L 26 30 L 28 30 L 28 28 C 28 27.449219 27.550781 27 27 27 L 23 27 C 22.449219 27 22 27.449219 22 28" fill="inherit"/><path d="M 31 29 L 33 29 L 33 31 L 31 31 Z M 31 33 L 32.179688 33 L 33.019531 37.195312 L 34.980469 36.804688 L 34.214844 32.976562 C 34.664062 32.878906 35 32.476562 35 32 L 35 28 C 35 27.449219 34.550781 27 34 27 L 30 27 C 29.449219 27 29 27.449219 29 28 L 29 37 L 31 37 L 31 33" fill="inherit"/><path d="M 38 31.300781 L 38.167969 31.554688 C 38.539062 32.109375 39.460938 32.109375 39.832031 31.554688 L 40 31.300781 L 40 37 L 42 37 L 42 28 C 42 27.558594 41.710938 27.171875 41.289062 27.042969 C 40.871094 26.914062 40.414062 27.078125 40.167969 27.445312 L 39 29.199219 L 37.832031 27.445312 C 37.585938 27.078125 37.132812 26.914062 36.710938 27.042969 C 36.289062 27.171875 36 27.558594 36 28 L 36 37 L 38 37 L 38 31.300781" fill="inherit"/><path d="M 49 17 C 50.65625 17 52 18.34375 52 20 C 52 21.65625 50.65625 23 49 23 C 47.34375 23 46 21.65625 46 20 C 46 18.34375 47.34375 17 49 17 Z M 49 25 C 51.757812 25 54 22.757812 54 20 C 54 17.242188 51.757812 15 49 15 C 46.242188 15 44 17.242188 44 20 C 44 22.757812 46.242188 25 49 25" fill="inherit"/><path d="M 38 48 L 49 48 L 49 46 L 38 46 L 38 48" fill="inherit"/><path d="M 38 52 L 47 52 L 47 50 L 38 50 L 38 52" fill="inherit"/><path d="M 38 56 L 43 56 L 43 54 L 38 54 L 38 56" fill="inherit"/><path d="M 50 18 L 48 18 L 48 22 L 50 22 L 50 18" fill="inherit"/><path d="M 13 45 C 10.792969 45 9 43.207031 9 41 C 9 38.792969 10.792969 37 13 37 C 15.207031 37 17 38.792969 17 41 C 17 43.207031 15.207031 45 13 45 Z M 13 35 C 9.691406 35 7 37.691406 7 41 C 7 44.308594 9.691406 47 13 47 C 16.308594 47 19 44.308594 19 41 C 19 37.691406 16.308594 35 13 35" fill="inherit"/><path d="M 12.894531 38.550781 L 11.105469 39.449219 L 12.105469 41.449219 C 12.203125 41.640625 12.359375 41.796875 12.550781 41.894531 L 14.550781 42.894531 L 15.449219 41.105469 L 13.746094 40.253906 L 12.894531 38.550781" fill="inherit"/><path d="M 13 19 L 13 16 L 11 16 L 11 19 L 13 19" fill="inherit"/><path d="M 17 13 L 15 13 L 15 19 L 17 19 L 17 13" fill="inherit"/><path d="M 21 10 L 19 10 L 19 19 L 21 19 L 21 10" fill="inherit"/><path d="M 25 8 L 23 8 L 23 19 L 25 19 L 25 8" fill="inherit"/></g></svg>