<?xml version="1.0" encoding="UTF-8" standalone="no"?><svg xmlns="http://www.w3.org/2000/svg" xmlns:xlink="http://www.w3.org/1999/xlink" baseProfile="tiny" fill="#7b3911" height="354.7" overflow="visible" preserveAspectRatio="xMidYMid meet" version="1" viewBox="124.7 45.3 320.5 354.7" width="320.5" zoomAndPan="magnify"><g id="change1_1"><path d="M211.06,260.75c0,29.15,23.61,52.93,52.76,52.93s52.93-23.78,52.93-52.93c0-20.03-11.24-37.61-27.68-46.58l-13.19,49.19 c-1.47,5.53-6.35,9.29-12.06,9.29c-0.98,0-1.95-0.17-3.09-0.49c-3.25-0.81-6.03-2.93-7.65-5.7c-1.63-2.93-2.12-6.35-1.3-9.61 l13.19-49.03h-1.15C234.67,207.81,211.06,231.59,211.06,260.75z"/><path d="M166.27,260.75c0,53.91,43.81,97.72,97.55,97.72c53.91,0,97.72-43.81,97.72-97.72c0-40.88-25.24-75.89-60.75-90.39 l-9.45,35.51c20.2,9.93,34.04,30.94,34.04,54.88c0,34.04-27.52,61.57-61.57,61.57c-33.87,0-61.56-27.52-61.56-61.57 c0-33.87,27.69-61.56,61.56-61.56c1.15,0,2.28,0,3.42,0.17l9.45-35.35c-4.23-0.65-8.47-0.98-12.87-0.98 C210.08,163.03,166.27,206.84,166.27,260.75z"/><path d="M383.7,75.08c-13.52-22.8-30.3-29.81-52.12-21.5c0,1.3-0.17,2.77-0.49,4.07l-18.08,67.26c2.12-0.49,4.07-0.98,6.03-1.3 c0.65-0.16,1.14-0.16,1.63-0.33h0.16c1.96-0.16,3.91-0.33,5.87-0.33c17.26,0,31.59,9.94,42.51,29.48 c13.19,20.53,31.11,27.04,54.07,19.55c-14.33-9.45-21.82-23.78-22.31-42.51c0-2.45,1.95-4.4,4.39-4.56 c14.82-0.33,27.85-8.63,39.91-25.89C420.02,105.37,398.84,97.23,383.7,75.08z"/><path d="M295.59,124.92L292.65,136l-5.53,21.01l-2.28,8.3l-9.45,35.01l-2.12,8.47l-13.52,50.16c-0.65,2.44,0.65,4.72,2.93,5.38 c0.49,0.17,0.81,0.17,1.14,0.17c1.96,0,3.75-1.3,4.24-3.26l13.52-50.32l2.27-8.31l9.29-35.01v-0.17l2.27-8.3l5.38-19.87l2.93-11.07 l1.46-5.54l17.59-65.3l0.49-1.79c0.49-2.28-0.81-4.72-3.09-5.38c-0.33,0-0.81-0.17-1.14-0.17c-0.49,0-0.98,0-1.46,0.17 c-0.33,0.16-0.82,0.49-1.15,0.81c-0.49,0.17-0.81,0.49-0.97,0.98c-0.33,0.33-0.49,0.82-0.65,1.3l-16.94,63.36L295.59,124.92z"/><path d="M319.85,132.08c-3.09,0.49-6.19,1.47-9.44,2.77l-7.33,27.04c39.41,15.63,67.26,54.07,67.26,98.86 c0,58.63-47.71,106.36-106.51,106.36c-58.63,0-106.35-47.72-106.35-106.36c0-58.62,47.71-106.35,106.35-106.35 c5.22,0,10.27,0.33,15.15,1.14l8.63-31.92c-7.49-1.14-15.47-1.79-23.78-1.96c-76.71,0-139.09,62.38-139.09,139.09 S187.12,400,263.83,400c76.88,0,139.25-62.55,139.25-139.25c0-13.19-1.96-26.22-5.54-38.92c0,0-0.16-0.17-0.16-0.33 C381.9,176.55,355.53,146.58,319.85,132.08z"/></g></svg>