<?xml version="1.0" encoding="UTF-8" standalone="no"?><svg xmlns="http://www.w3.org/2000/svg" xmlns:xlink="http://www.w3.org/1999/xlink" fill="#000000" height="67.2" preserveAspectRatio="xMidYMid meet" version="1" viewBox="0.2 -0.0 55.4 67.2" width="55.4" zoomAndPan="magnify"><g data-name="Layer 2"><g data-name="Layer 1" fill="#692900" id="change1_1"><path d="M6.08,28.07H14.6a1.28,1.28,0,0,0,0-2.55H11.52V18.46a1.28,1.28,0,1,0-2.55,0v7.06H7.35V17.29a3.35,3.35,0,0,1,3.34-3.35h8.13a1.27,1.27,0,0,0,.08-2.54l-.4,0H10.69a5.9,5.9,0,0,0-5.89,5.9V26.8A1.27,1.27,0,0,0,6.08,28.07Z"/><path d="M40.94,10.36a5.18,5.18,0,1,0-5.18-5.18A5.18,5.18,0,0,0,40.94,10.36Zm0-7.81a2.63,2.63,0,1,1-2.63,2.63A2.63,2.63,0,0,1,40.94,2.55Z"/><path d="M36.72,14h8.12a3.35,3.35,0,0,1,3.34,3.35v8.23H46.56V18.46a1.28,1.28,0,1,0-2.55,0v7.06H40.94a1.28,1.28,0,1,0,0,2.55h8.52a1.27,1.27,0,0,0,1.27-1.27V17.29a5.9,5.9,0,0,0-5.89-5.9H37l-.41,0A1.27,1.27,0,0,0,36.72,14Z"/><path d="M14.6,10.36A5.18,5.18,0,1,0,9.41,5.18,5.19,5.19,0,0,0,14.6,10.36Zm0-7.81A2.63,2.63,0,1,1,12,5.18,2.63,2.63,0,0,1,14.6,2.55Z"/><path d="M32.26,13.46h-9a6.6,6.6,0,0,0-6.6,6.59V32A1.29,1.29,0,0,0,18,33.27H37.59A1.28,1.28,0,0,0,38.86,32V20.05A6.6,6.6,0,0,0,32.26,13.46Zm4.05,17.25H34V22.63a1.28,1.28,0,1,0-2.55,0v8.08H24V22.63a1.28,1.28,0,1,0-2.55,0v8.08H19.23V20.05a4,4,0,0,1,4-4h9a4.05,4.05,0,0,1,4.05,4Z"/><path d="M27.77,12.64A5.78,5.78,0,1,0,22,6.87,5.78,5.78,0,0,0,27.77,12.64ZM31,6.87a3.23,3.23,0,1,1-3.22-3.23A3.22,3.22,0,0,1,31,6.87Z"/><path d="M54.54,26.08a1.29,1.29,0,0,0-1.06-.56,1.29,1.29,0,0,0-1,2,2.81,2.81,0,0,1,.55,1.6,3.3,3.3,0,0,1-1,2.15l0,0c-3.12,3.39-12,5.82-22.05,6.12h-.21q-1,0-1.92,0c-.65,0-1.28,0-1.92,0h-.21c-10-.3-18.94-2.73-22.06-6.12l0,0a3.25,3.25,0,0,1-1-2.15,2.88,2.88,0,0,1,.55-1.6,1.28,1.28,0,0,0-.33-1.78,1.27,1.27,0,0,0-.72-.22,1.29,1.29,0,0,0-1,.56,5.35,5.35,0,0,0-1,3,5.9,5.9,0,0,0,1.9,4.17L16.18,51.63V64.34a1.36,1.36,0,0,0,1,1.24,36.23,36.23,0,0,0,10.61,1.58,36.78,36.78,0,0,0,10.71-1.6,1.29,1.29,0,0,0,.9-1.22V51.63L53.62,33.3a5.9,5.9,0,0,0,1.92-4.18A5.35,5.35,0,0,0,54.54,26.08ZM37.29,50.13a25.83,25.83,0,0,1-19,0L7.93,36.88c.57.22,1.17.43,1.79.63l.68.21.86.25a56.88,56.88,0,0,0,11.51,1.86l1.65.1.71,0c.88,0,1.76,0,2.64,0s1.75,0,2.63,0l.71,0,1.65-.1A57,57,0,0,0,44.27,38l.88-.25.66-.21c.62-.2,1.22-.41,1.79-.63ZM18.73,63.38V53A28.14,28.14,0,0,0,36.8,53V63.38a33.76,33.76,0,0,1-9,1.23A34.09,34.09,0,0,1,18.73,63.38Z"/></g></g></svg>